<?xml version="1.0" encoding="UTF-8"?>
<svg width="127px" height="15px" viewBox="0 0 127 15" version="1.1" xmlns="http://www.w3.org/2000/svg" xmlns:xlink="http://www.w3.org/1999/xlink">
    <!-- Generator: Sketch 53.2 (72643) - https://sketchapp.com -->
    <title>logo/white</title>
    <desc>Created with Sketch.</desc>
    <g id="logo/white" stroke="none" stroke-width="1" fill="none" fill-rule="evenodd">
        <g id="logo/white-copy-9" transform="translate(21.000000, 4.000000)" fill="#FFFFFF" fill-rule="nonzero">
            <g id="logo/black">
                <path d="M0.669086897,0.616000305 L2.1666869,0.616000305 L2.1666869,8.68000031 L0.669086897,8.68000031 L0.669086897,0.616000305 Z M12.4015667,1.87168031 L12.4015667,4.32544031 L16.2953267,4.32544031 L16.2953267,5.59264031 L12.4015667,5.59264031 L12.4015667,8.68000031 L10.9039667,8.68000031 L10.9039667,0.616000305 L16.7906867,0.616000305 L16.7906867,1.87168031 L12.4015667,1.87168031 Z M29.6866866,6.81376031 L25.6546866,6.81376031 L24.8598066,8.68000031 L23.3161266,8.68000031 L26.9449266,0.616000305 L28.4194866,0.616000305 L32.0598066,8.68000031 L30.4930866,8.68000031 L29.6866866,6.81376031 Z M29.1913266,5.63872031 L27.6706866,2.11360031 L26.1615666,5.63872031 L29.1913266,5.63872031 Z M43.2623664,8.79520031 C42.4482824,8.79520031 41.7129297,8.61664209 41.0562864,8.25952031 C40.3996432,7.90239852 39.8850883,7.40896345 39.5126064,6.77920031 C39.1401246,6.14943716 38.9538864,5.43904426 38.9538864,4.64800031 C38.9538864,3.85695635 39.1420446,3.14656345 39.5183664,2.51680031 C39.8946883,1.88703716 40.4111632,1.39360209 41.0678064,1.03648031 C41.7244497,0.67935852 42.4598024,0.500800305 43.2738864,0.500800305 C43.9343697,0.500800305 44.5372437,0.615999153 45.0825264,0.846400305 C45.6278092,1.07680146 46.0886046,1.41087812 46.4649264,1.84864031 L45.4972464,2.75872031 C44.9135635,2.12895716 44.1954907,1.81408031 43.3430064,1.81408031 C42.7900437,1.81408031 42.2946886,1.9350391 41.8569264,2.17696031 C41.4191642,2.41888151 41.0774077,2.75487815 40.8316464,3.18496031 C40.5858852,3.61504246 40.4630064,4.10271758 40.4630064,4.64800031 C40.4630064,5.19328303 40.5858852,5.68095815 40.8316464,6.11104031 C41.0774077,6.54112246 41.4191642,6.8771191 41.8569264,7.11904031 C42.2946886,7.36096151 42.7900437,7.48192031 43.3430064,7.48192031 C44.1954907,7.48192031 44.9135635,7.16320349 45.4972464,6.52576031 L46.4649264,7.44736031 C46.0886046,7.88512249 45.6258892,8.21919915 45.0767664,8.44960031 C44.5276437,8.68000146 43.9228497,8.79520031 43.2623664,8.79520031 Z M56.0086063,1.88320031 L53.3359663,1.88320031 L53.3359663,0.616000305 L60.1788463,0.616000305 L60.1788463,1.88320031 L57.5062063,1.88320031 L57.5062063,8.68000031 L56.0086063,8.68000031 L56.0086063,1.88320031 Z M71.5196461,8.79520031 C70.697882,8.79520031 69.9567694,8.61664209 69.2962861,8.25952031 C68.6358028,7.90239852 68.117408,7.40704347 67.7410861,6.77344031 C67.3647643,6.13983714 67.1766061,5.43136422 67.1766061,4.64800031 C67.1766061,3.86463639 67.3647643,3.15616347 67.7410861,2.52256031 C68.117408,1.88895714 68.6358028,1.39360209 69.2962861,1.03648031 C69.9567694,0.67935852 70.697882,0.500800305 71.5196461,0.500800305 C72.3414102,0.500800305 73.0825228,0.67935852 73.7430061,1.03648031 C74.4034894,1.39360209 74.9218843,1.88703716 75.2982061,2.51680031 C75.674528,3.14656345 75.8626861,3.85695635 75.8626861,4.64800031 C75.8626861,5.43904426 75.674528,6.14943716 75.2982061,6.77920031 C74.9218843,7.40896345 74.4034894,7.90239852 73.7430061,8.25952031 C73.0825228,8.61664209 72.3414102,8.79520031 71.5196461,8.79520031 Z M71.5196461,7.48192031 C72.0572488,7.48192031 72.541084,7.36096151 72.9711661,7.11904031 C73.4012483,6.8771191 73.7391649,6.53920247 73.9849261,6.10528031 C74.2306874,5.67135814 74.3535661,5.18560299 74.3535661,4.64800031 C74.3535661,4.11039762 74.2306874,3.62464247 73.9849261,3.19072031 C73.7391649,2.75679814 73.4012483,2.41888151 72.9711661,2.17696031 C72.541084,1.9350391 72.0572488,1.81408031 71.5196461,1.81408031 C70.9820434,1.81408031 70.4982083,1.9350391 70.0681261,2.17696031 C69.638044,2.41888151 69.3001274,2.75679814 69.0543661,3.19072031 C68.8086049,3.62464247 68.6857261,4.11039762 68.6857261,4.64800031 C68.6857261,5.18560299 68.8086049,5.67135814 69.0543661,6.10528031 C69.3001274,6.53920247 69.638044,6.8771191 70.0681261,7.11904031 C70.4982083,7.36096151 70.9820434,7.48192031 71.5196461,7.48192031 Z M89.288606,8.68000031 L87.641246,6.31840031 C87.5721256,6.32608034 87.4684467,6.32992031 87.330206,6.32992031 L85.510046,6.32992031 L85.510046,8.68000031 L84.012446,8.68000031 L84.012446,0.616000305 L87.330206,0.616000305 C88.0290895,0.616000305 88.6377234,0.731199153 89.156126,0.961600305 C89.6745286,1.19200146 90.0719646,1.52223815 90.348446,1.95232031 C90.6249274,2.38240246 90.763166,2.89311735 90.763166,3.48448031 C90.763166,4.09120334 90.6153275,4.61343812 90.319646,5.05120031 C90.0239645,5.48896249 89.5996487,5.81535923 89.046686,6.03040031 L90.901406,8.68000031 L89.288606,8.68000031 Z M89.254046,3.48448031 C89.254046,2.96991773 89.0850877,2.57440169 88.747166,2.29792031 C88.4092443,2.02143892 87.9138892,1.88320031 87.261086,1.88320031 L85.510046,1.88320031 L85.510046,5.09728031 L87.261086,5.09728031 C87.9138892,5.09728031 88.4092443,4.95712171 88.747166,4.67680031 C89.0850877,4.3964789 89.254046,3.99904288 89.254046,3.48448031 Z M102.357406,5.83456031 L102.357406,8.68000031 L100.859806,8.68000031 L100.859806,5.85760031 L97.6918058,0.616000305 L99.2930858,0.616000305 L101.654686,4.54432031 L104.039326,0.616000305 L105.513886,0.616000305 L102.357406,5.83456031 Z" id="IFACTORY"></path>
            </g>
        </g>
        <g id="ifactory-chevron">
            <polygon id="Rectangle" fill="#86121F" transform="translate(8.628235, 10.307411) rotate(-26.000000) translate(-8.628235, -10.307411) " points="7.25617385 7.33920151 12.9721112 7.33149185 10.0002966 13.2756213 4.28435926 13.283331"></polygon>
            <polygon id="Rectangle-Copy" fill="#FF2B43" transform="translate(5.661353, 5.322064) scale(-1, 1) rotate(26.000000) translate(-5.661353, -5.322064) " points="4.71151862 2.5088778 10.4864126 2.54571464 6.55222999 8.13525042 0.8362926 8.12754076"></polygon>
        </g>
    </g>
</svg>